<mxfile modified="2024-03-23T16:11:53.433Z" host="Electron" agent="Mozilla/5.0 (Windows NT 10.0; Win64; x64) AppleWebKit/537.36 (KHTML, like Gecko) draw.io/23.1.5 Chrome/120.0.6099.109 Electron/28.1.0 Safari/537.36" etag="g7wzWvR8L7T7u4T1pLw5" version="23.1.5" type="device">
  <diagram id="7gcUSTIZ7YSJ5vT40chW" name="Page-1">
    <mxGraphModel dx="3772" dy="844" grid="0" gridSize="10" guides="1" tooltips="1" connect="1" arrows="1" fold="1" page="1" pageScale="1" pageWidth="1169" pageHeight="827" math="0" shadow="0">
      <root>
        <mxCell id="0" />
        <mxCell id="1" parent="0" />
        <mxCell id="_k-O106RIhIauwXnGpcd-9" value="" style="group" parent="1" vertex="1" connectable="0">
          <mxGeometry x="990" y="363" width="174" height="171" as="geometry" />
        </mxCell>
        <mxCell id="_k-O106RIhIauwXnGpcd-1" value="" style="dashed=0;outlineConnect=0;html=1;align=center;labelPosition=center;verticalLabelPosition=bottom;verticalAlign=top;shape=mxgraph.webicons.mongodb;gradientColor=#DFDEDE" parent="_k-O106RIhIauwXnGpcd-9" vertex="1">
          <mxGeometry x="35.799999999999955" width="102.4" height="109.44000000000001" as="geometry" />
        </mxCell>
        <mxCell id="_k-O106RIhIauwXnGpcd-7" value="DATABASE&lt;br&gt;Atlas MongoDB" style="text;html=1;align=center;verticalAlign=middle;resizable=0;points=[];autosize=1;strokeColor=none;fillColor=none;fontSize=21;fontStyle=1" parent="_k-O106RIhIauwXnGpcd-9" vertex="1">
          <mxGeometry y="104.73750000000001" width="174" height="62" as="geometry" />
        </mxCell>
        <mxCell id="_k-O106RIhIauwXnGpcd-15" value="" style="group" parent="1" vertex="1" connectable="0">
          <mxGeometry x="866" y="426" width="108" height="31.5" as="geometry" />
        </mxCell>
        <mxCell id="_k-O106RIhIauwXnGpcd-13" style="edgeStyle=orthogonalEdgeStyle;rounded=0;orthogonalLoop=1;jettySize=auto;html=1;strokeColor=#808080;" parent="_k-O106RIhIauwXnGpcd-15" edge="1">
          <mxGeometry relative="1" as="geometry">
            <mxPoint y="1.3642420526593865e-13" as="sourcePoint" />
            <mxPoint x="107.84023668639054" as="targetPoint" />
          </mxGeometry>
        </mxCell>
        <mxCell id="_k-O106RIhIauwXnGpcd-14" style="edgeStyle=orthogonalEdgeStyle;rounded=0;orthogonalLoop=1;jettySize=auto;html=1;strokeColor=#808080;startArrow=classic;startFill=1;endArrow=none;endFill=0;" parent="_k-O106RIhIauwXnGpcd-15" edge="1">
          <mxGeometry relative="1" as="geometry">
            <mxPoint x="0.15976331360946747" y="31.5" as="sourcePoint" />
            <mxPoint x="108.00000000000001" y="31.499999999999865" as="targetPoint" />
          </mxGeometry>
        </mxCell>
        <mxCell id="_k-O106RIhIauwXnGpcd-20" value="" style="shape=image;verticalLabelPosition=bottom;labelBackgroundColor=default;verticalAlign=top;aspect=fixed;imageAspect=0;image=https://miro.medium.com/v2/resize:fit:365/1*Jr3NFSKTfQWRUyjblBSKeg.png;" parent="1" vertex="1">
          <mxGeometry x="605" y="380.21" width="219.34" height="120.79" as="geometry" />
        </mxCell>
        <mxCell id="_k-O106RIhIauwXnGpcd-6" value="API SERVER" style="text;html=1;align=center;verticalAlign=middle;resizable=0;points=[];autosize=1;strokeColor=none;fillColor=none;fontSize=21;fontStyle=1" parent="1" vertex="1">
          <mxGeometry x="636" y="506" width="145" height="37" as="geometry" />
        </mxCell>
        <mxCell id="_k-O106RIhIauwXnGpcd-41" value="" style="group" parent="1" vertex="1" connectable="0">
          <mxGeometry x="-2.9999999999999716" y="163" width="608" height="549.66" as="geometry" />
        </mxCell>
        <mxCell id="_k-O106RIhIauwXnGpcd-33" value="" style="group" parent="_k-O106RIhIauwXnGpcd-41" vertex="1" connectable="0">
          <mxGeometry y="220.83999999999997" width="196" height="150.5" as="geometry" />
        </mxCell>
        <mxCell id="_k-O106RIhIauwXnGpcd-11" value="" style="shape=image;verticalLabelPosition=bottom;labelBackgroundColor=default;verticalAlign=top;aspect=fixed;imageAspect=0;image=data:image/jpeg,/9j/4AAQSkZJRgABAQAAAQABAAD/2wCEAAkGBw0NDw0NDQ0NDQ0NDQ0NDQ0PDQ8NDw0NFREXFxURExYZKCohGRsxHRUVJD0tMSkrMC4wFx8zODMsNygtLisBCgoKDQ0NDg0NDisZHxktKysrKystLSsrKysrNysrKysrKysrKysrKysrKysrKysrKysrKysrKysrKysrKysrK//AABEIAMIBAwMBIgACEQEDEQH/xAAcAAEBAAIDAQEAAAAAAAAAAAAAAQUHBAYIAwL/xABBEAABBAECBAIFBwkIAwAAAAAAAQIDBBEFEgYHITETQRQiUWFxFTI1UoGRoRdCcnR1sbO0wQgjMzRVYnPRFpOU/8QAFQEBAQAAAAAAAAAAAAAAAAAAAAH/xAAUEQEAAAAAAAAAAAAAAAAAAAAA/9oADAMBAAIRAxEAPwDRxAUohQAAAAEKAAAAAAAAAAAAAAAQoAAAAAAAAAAAAAAAACKCAAQAKFIUAAAAACAAAAoAAAAAAIXAAAAACFAEKAAAAEBSAAAAAAAABUAAApCgAAECkKAAAAAoEBQBAUAQFAEBQAAwAIAUCADAAAACFIAAAAABUAAApCgAAECgAACgCFAAAAAAAAAAAAAAAAAAAgAAAQAAAAFAMgCAAAUgAoACMno2gXtQWRKVWaysW1ZEiZu2I7O3P3L9xyrPB+qwtnfLQsxtrRpNO58atbHGucKqr8F9/Q2f/Zo/xNW/QpfvlNi8w9W09IV0uxOxlnUlghjg9ZXyNfM1ir0T1U79Vx2IrzbpHBer3o/Gq6fZmhX5siM2sd+irsbvsMdquk2qUiw268teVEzslYrFVv1kz3T3oewNXSxDBG2hExz2TVI/DXa1rKvjMSXGVROke7Hw8+x1rm3pNW1TrSWms2wajQzI5UajYpLDI5UV3k3a5c/BAPO+k8FavdjSarp9mWJfmybNjX+9quxuT4GP1fRrlGTwblaWtIqZRsrFbuT2tXsqfA9XW9da9KzNKkrWl9MqwzshcyZsFNXf3jl2rhuGp+7v2MVzW0iC5X09JmNejdX01nX6ks6RPb8FR/4IB520ngrWLsaTVtPsywu+bJs2Nentarsbk96HzocMXH36+mzQT155p4o3o6Byvijc9Gul2+bUTK57dO56m4v1hdNrwTMWKOP02hXlc9ESOOtJO1ki+SJhqr8DrfFvEtB1jRrFG3Qs3G6pXqKjZWSyeiWcxyoiNXPmxfYioBrfjHkzJplKa5FdfdfEseK7KStc5rnIirlHLjCKq9vI1UeteZ2r2KOlWZ6zGPmVYoGse1zkcksjY16IqLnDunvPN3/gOuf6Vd/9KgY/ROHb+oK5KVSezt+c6Niqxq+xXL0RftPrrXCeqae1JLlGxBGq4SRzMsz7FcmURT0TwFfpVNHp1a89b01tHxXVWyMdMtxzNzmuYi7ldvXGPdgz16vJc0d8d6JrZrGmL6VFjoyw6DLkT2Yfnz8gPLekcH6reiWxUoWJ4UVUSVrPVcqd9ufnfZk3fovKjRJNOrWJqcyWH0o5Zd1ixG5JliRXZbnoufLB3Lg1qRaNpysRE2aZWeieW7wEdlftPvoeoSW9KrWpdvi2dOink2phu98KOXCeSZUDyzS4L1exEyeHTrUsMjd7JGxKrXN9qKSfg3V46y3ZNPtMrIzxFlWPG2P66p3RPfg9M8slxomlr7KbP6nO4N1OS/ptK3OjPEs12ySNa3DNy5zhF8gPLNjgzV4q/pkmn2mVkYkiyrGvqx/Wc3uie/BtLgfgnh+1p1Ke3SvyWJYt0r44dSdG525Uyixptx08jaXCeoSahplSzYRiyWqrXyta3DFVydURF8jH8pfoPS/+Bf4jgPOk/BepTy2H0NOty1Es2Y4HtievqMlc1EXPXKYx169D5M4E1pY3zJplvw41ejl8JUX1Vw7De69l7IelOW3+Rf8AtHVv56YyPC2pS24p5Jdu6O/frt2ptTw4rD2Mz78NQDxuDMcZNRup6o1qIjW6jda1E6IiJO/CIYcqIAABAAoAAAAAAACgIAjdn9mf/E1f9Cl++U+PNx6N4o0hy9mt0xV9yJcep0nl5x5NoK2nRV4rHpSQo5JHuZs8NXYxj9P8Dicd8XS63bZdkhZXeyBkCNjc5yYa9zkdlfP1vwIr03x3ZtQ0lfTfIyZbVGPdG1r3pG+zGx+EVFT5rl8uhh+YejNfSbFNbtTRT39MgkikfFtex9yJrkXa1F7KvZTWOg89L9eFsVupFdexEa2fxXV5HNRPz+jkVfemDr/GnM/UNWfXVEZUhqyssRQxKr8ztXLZHuX5yp5dEQD0Tqz/AJOgpxUa8ccb71GqrI4sMigfM1r3I1vb1cpnyzk4vMFyNr03L2TWNHVfglyM1R+Xy74TG/J9bx02b5fFk2PRF9bbHjKZT/cuPeYbjHm3Z1ao+k+pDXR0kUiSxyyK9rmPRyYz70A3TzT070zT2V1a97JdQ02OVGfOSJ1ljXLny6L3Ol8S8u9J0eTR7NVths79d0yBu+ZZG4WXcvTHsYdf0fnxdhiZHapQ25WIjVnSZa7pMebmoipn4YT3HU+MeYuoatYr2HK2s2nI2arDFlWxyoqKkjlX5zson/XVchvrnE57dHnfHG6V8c9KVGNRVV2yyx3l18jXX5f7X+mV/wD6JP8Ao4v5d77oljkoVXOdGrHva+VmVVMKqJ1x95qRAPV/AlOCrpEFuvXjbNZppfmVrfXmnkZ4ioru6plcJ7EwZbTrctjSoZ502zz6ZHNM3bsxK+ujnpt8uqr0NE8I85bem04qUlOK2ldvhwSrK6FzY/zWvREVHY7eXRE+JzXc97z4ljk0+qrnRqx70kkaiqrcKqJ1x94G4uFeui0Mdc6VW/l0PxwlG5miUGuarXN0qujmuRUVq+jplFTyNKcKc57enU4qT6cVr0diRQSrK6FWxonqteiIu7Hby6J9pzPy8XnR+HJQquc5ise9JJGoqqmFVE64+8DbPLP6D0z9Sb/UvK/6E0v9UZ/U0zw9zmtUKdeiyjXkZXhSFJHSyIrkTzVEHDnOa1p9OtSZRryNrRJEj3SyIrkTzVEA3Py0+hNL/Uo/3Hy5S/Qemf8AAv8AEcae4e5z2qFOtSZRryNrQthR7pZEc5E81Q/HDHOS1ptOtRZRrysrM2I90sjXOTcq5VPtA3Ry2/yL/wBo6t/PTH14C/y9v9rat/NyGlNA5z2qEKwMo15EWe1PudLIi5mmfKqfYr8fYfrRedVqmySNtCu9JbNqyqrLImHTSukVvwTdgDovGv0pqv7Svfx3mGOXrF5bdm1ac1GOs2JrDmIqqjFkerlai+zqcMqAACoAAAAAAAAAAKCACgAIFIUAAAAAAAACggAAACkUAAAAAAAEAAAAKgAAAAAAAAAAAACghUAAAIAACggAoIAKAQCggAoIAKQAAAAABAoAAAAAAAAAAAAAAAAUgAoIAKCFAA3/AKRyj0KWjRszyXGPtQVFVWztws0rW4RE2rjLnfidH4n5V2Y9WXTNLR9ljqsdxHyuazwInPczEj+iL6zFxhMrnt0UDXAO3cScuNX0xYUnrpI2xK2CJ8D/ABmumd82P2oq+9DI2eT2vRwLOteJ21u90DJ2umRMZXp2VfciqB0AHc+GuWOsanAlqvDGyB+VifNKkXioi4yxO+Pf0Q7BwZycs3vTG35JNPfVmbCjUjZN4jtiOcqet2w5i57LuA1YDdXBPKejYg1D5Q9JSzSu2K393KxjVYyNrmqqIi9VR2e/mdQ0jlLrlyuy1HDCxkrEkiZLM2OR7F6o5E8unXqqAdEBydRozVZZK9iN0U8L1ZJG7u1yeRxgAIAKCAAAAAAAAAAAAAAAAAAAAAAAAAAAAPXmg2I49K0dZI0kR0OlxtRURdsj0ja1/X2KqL9h9NNhc3V9Tc5+/fR0tWJhE8OPxLSbOnf1kcuf93uNJwc5ZmVKdP5PiVKfoW1/pDsv9HVqplNvTOz8T8/lotpqK6gynE1klSOpNVWVzkkSOR72SI/GWuTxHJ2VMKvuxBt7UbsktKqtKs9cXaaV5bT2Kzc2yjVc/a5X/W8snYqCYllSSVH2fBr+M1jHMia3dJsVjVVcKvr+a9kPP+uc5rU7qjalOCnBWsR2HRbvE8dzFyjFwiI1uVVeiZzhTLLz7kR6vZpMCK5jGucth29ytz0VyN6p6y4TyyvtA2JdnsQaLp76MccllHaY2GJ7lZG975WNw5UVMJ6yn04Is6lJc1H5Uhhr2EhoK2GCVZIvDVZ8P6qvrLhUX3NQ1Lw5zonqV0q2KENtsT3PruWTw1jTfuY12UVF2r2XovRPPqcfSuc1+C5duS14J222xNSDc6NIGRbtjWO6r+c7Oe6rnoBs7lPI59LWXPc5zl1XUEVznK5Vw1qJlV92DLcM3XXKOnpMyfTbjYWJBvRitkekCpujTq2Ru3K4XqmPLGTVVjnnP4EkFfS6tZXse1rmyOVsau7u2IiIq9VU+XD/ADqlq1a1exp0FuSmxrK8/i+G5NrFYjlRUXDtqqmUVMoq+0DqPNCvbi1e627JHNY3RudLGzwmSNWJuxyN67fVx0z3ydVMrxRrs2qXJ706NSSdyKrW52sajUa1rc+SIiGKKAAAAAAAAAAAAAAAAAAAAAAAAAAAAAAAAAAAAAAAAAAAAAAAAAAAAAAAAAAAAAADIwaZvaxySsRXplGLnPn+PQ+s2jbWuVsrHKxqq5uMesn5qAYkGT+SF7rNEiJ3XKr5J2+8x8zNrnNyi7XK3KdlwuMoB+AAAAAAAAAAAAAAAAAAAAAAAAAAAAAAAAAAAAAAAAfpFVOqLhU7KnRUGV+/v7wACkUACAAAAAAAAAAAAAAAAAAAAAAAAAAAAAAAAAAAAAAAA//Z;" parent="_k-O106RIhIauwXnGpcd-33" vertex="1">
          <mxGeometry x="29.649999999999977" width="135" height="101.12" as="geometry" />
        </mxCell>
        <mxCell id="_k-O106RIhIauwXnGpcd-27" value="WEB ADMIN SIDE" style="text;html=1;align=center;verticalAlign=middle;resizable=0;points=[];autosize=1;strokeColor=none;fillColor=none;fontSize=21;fontStyle=1" parent="_k-O106RIhIauwXnGpcd-33" vertex="1">
          <mxGeometry y="113.5" width="196" height="37" as="geometry" />
        </mxCell>
        <mxCell id="_k-O106RIhIauwXnGpcd-40" value="" style="group" parent="_k-O106RIhIauwXnGpcd-41" vertex="1" connectable="0">
          <mxGeometry x="127" width="481" height="549.66" as="geometry" />
        </mxCell>
        <mxCell id="_k-O106RIhIauwXnGpcd-32" value="" style="group" parent="_k-O106RIhIauwXnGpcd-40" vertex="1" connectable="0">
          <mxGeometry x="4" y="430" width="162" height="119.65999999999997" as="geometry" />
        </mxCell>
        <mxCell id="_k-O106RIhIauwXnGpcd-28" value="" style="shape=image;verticalLabelPosition=bottom;labelBackgroundColor=default;verticalAlign=top;aspect=fixed;imageAspect=0;image=data:image/png,iVBORw0KGgoAAAANSUhEUgAAARMAAAC3CAMAAAAGjUrGAAABlVBMVEX///8Ax/oAAAD///7//f8BWJ0AuPj8//////z///oBxvr//v3//foDWJv5//8DxfqEb2LN2eT///IAAAUBWZnV///x/f8AxvMpxOuT5/EAUo/s3NI4R1b16N0wDghbW1s/Pz8kFANDMigmNzvg8/bC4u7Mt5+wsLDf39/czL9AUljr//88TWRCXm7U1NTm//8AuvIAvOgAufQAvvHw8PDQtKLQ//902PAAzfdd1/QRAAAkIyYAABgAu90AABGl8/wAtfpDXWkRqOUASIoAR4CYutUAU4opxuAfzuKL2upr2exW2/951u5RTUtPU1avvL6ckImNn6DSycYtIhlqamouLi6Eg4e9vMCbm5s3IR4RExIfFxIIFiXh6e8SGRvo3Mq2qqRoYVqy5u2IlZ6bqqW1tq9AQzstPEi6ys4oMSdmdX0TICt/b1ujws9pf5GVq7hWQDU2UWklGhsMHy9TNjBcxNFINyaDenRpVEVjRC+JiokAYo0AUqIAqvcDTXsWpNQAS3MDNlsDJUIAOGI0bqVMeqOUttWHPqLaAAASVUlEQVR4nO1cC3sTR5ZtqdqqKlW5NEhYreB4YYMZzGiDXh7ZQMAONrBxEpI4gFnAEwbCwjLDJJPsLlmWJTOTkN+9997q1qu77bYxNkF1vs8Yd0v9OLrPc6vleQ4ODg4ODg4ODg4ODg4ODg4ODg4ODg4ODg4ODg4ODg4ODg4ODg4ODm8rRNoOvp9X8UZBlKVKhjG+r3z/oC9wXyGkNFxpmQLh+f6YMeJ5SkpuGlPdqRTgroZhB32Z+wrfF7yxUEvF+Sv/euWjujzoy9xf+H5jrVMq5UqJKOaC8wsNnhqC30oIAVYChBSTUcp1Fuq+Hq/swxpnOqUgSLYSMJ/WWsOH5HPQl7k/gBDBpKeQEuAkN2of4EydXLHUWWhIj/MxiSfC97hWjYV2s5OLAzjJ5YKgszYlJIeEfdBXuz/AosNaSbGYyxVHSQlg2yKGVwwmckw48XiYcYAS8JURUuDvUrG1UJdaQzBRY5J3pPJsEgaDoKQ7BAwoQIkPBZ3h41PIaqQkt4j3XyyO+k4QBGglApPw+BT3PsQSChu5mOPgNijV6rIMOVghJWNQn0D7wqoLTbAS9B3kJOiRYeMtJmFoin1qAz3zlnMiIQlrxesftymWjNpHqUg01dYamIQl88aj/fM9pafONJsJLgMGgiaz2IIkLI3ny/FgBCjxPaAEUg01OQm85KAuURo4UWPCiYLbnFrrtKF4T6hLitggQ8ZBqcmMjfIotAZKiAqkJKGAbX1S18JAl+ONTRLmjTNBqbMYJFgJFSaYhCXRMTaFicYeJxcAHUmU5KCgb9hQIoCRt1wjYBIFJE9Q27dInAw6DooDxQBjSUML7PqwLuFvOycoDghwnEJSXZKjjidACUlJ7o+NOOCH4kAzSRygIh+1V09DMBkjcQDqklKaOICmUluD8CqhkpfjIQ4wqcBKrICWi4sDKDRCXQKh1QAnY5JvPKWmKOOkiAO5oPVJ1YoD41OXgOOAOaSJAzjHqWpJddp4iAMAVodYkltsllBDGxAHoniCjqNsEvb9/RheHGQrJTnn8PnXP4a2LxeghYzWJaUAKFlr2EaYbXWtXEAElrEIDBTiqN3nPtCa0cSwXsKCaeDgHN9r/fb1Oy+HHudMu5lUlwA/AZhPa23Kh7rE2yYHAx88iRPrcpwrpXfEyVDO309O4ANkDSsO5BLFgWLu/FqD6Qy1GvEhEhO1j9aicV9GUvBlqed7zZwwHJMjJaniAHbCVhxg29QlXJ769GgKrn5mmPz806NXN7NdF/gbcKKiu+ccTs72KbhrjdVr0QaSmDiABRwkYV8MGG46uPh9PhVfGE/+Bn4fynZdnCERqvcnLoXxMDbtAy0+p7pkMZcmDtQWqhKTcAZtgEvgpJLOSXkHnAi5vv7odI8AThtOn67uBycMC/ogKKUMLXLnF+paGqZEBnHAcnLrWBKuf21Y+c/AWEZO5MzZfP7dau/QTJa/zOfPzb7OOgBjAyRWFloJcjKUhEmPLqJeorix4oC/rTgAvlOBGxlZCAguAG81wMkO7ETO/HM+/7tq3ypk+b18/vhssp0whHjVmgY/dyV4ww4tRmu0kJMA6xK5g6bvt8RJys7dcNI7MReWE0hePgWboZsJ1xy+cqEH8YF6nKS6hCJJDlcO+BoM5E3ghEWcsDgnTFhkvMpUYNhsoDiQI1EtiZbaQkNqql/fcE6s72xZY2cB1kMoIRVRPyrFjKUYkDggSRzIXiK9Micq+kdbTnpVW48TBU7fz9H0WhW+b8uDZgAXYupMx9ZlpaShRVD7pC4ZJ4PKTMorctK/OSX6dkKb+naCnLCh90QYusxhIrLRYqbONDFoJK0voaEFqmph95bpgIi98x094jueF3JCW/qc4M3OI0YucpSELKQwjCXFoIQL9uJhFhxnra4MdrkSe5WshVJWTpSaA4y+ADaenoOrnz8NO08hJ4fm6HX06mnkhDb0SzkgYu7mtevnAMdubMwPH2tu3jIxv3Hz2bP50ZMNwq5o9BofN1FVi9UluIHEgbrEuoQpW7/6SQC3YowPltuZOME2YebfqCIbyJ6Ci1O3b+Xfh6p5PX/r1q3bcKjKH+A/t+5sfnWbNsAW2gDHUKhxQI1w+umtfql87CSUuZB98Hqmz96C0llLeeraOdy3yVm6qTC4F4wlBRIHkiS1gOoSOCucWYHzJrT//Y9pyLdEdk7+yXLSo5Mp4AR2/xU4OWVvMeoSPtj8KtwQbQFOBDdcibtnhxuID2e51sAJ96apnZDyqd1xZ9NssewO7wCrV0tJLJLgYtggEgckNqbQz5bTmnZOrtW/61fkBO7w/aoQ68M3WknghA7ifU5//eHGyY2Nm0fp/3BMND3kpJL/gus/RgfZ5FtId7iHSrUiCmijoQTnoqSqaRQHlPKov0itmhnK1n7PKPeEEyXkNASD9e/AGSh8HDIzp8N4cv0RbQCvBSvx7hJR39jzyWm6/6uwQ0WceE/J2I7ePPlZdStOpEYrsUGkGMs4uAG1V8M5yWM43+q+syXuVfVecmIUIy1p5jbmHdwFzotmH+YdBDi0gT4ZOTi+aUUVKctlMpv7xidOzlbyXz/AmPTFvD1IKiMAW5dQh5Okqy3iaEvwMLBCt9O9cj5IQQuOc+Wdes9RLSdJnSKYkp+REzgxkmxzMd2OQGvUlhNmF1t6ECrQLs5t8vDt2PMgKRc2eWQnX/87nGQui9yJVoIqa2KALQUkDkB4VYoSi1mqNUuxBffRsvtS0Hqn7g3H2IePTsexAzvxOaXQfl/MJBvghHGo4ZW2UafyCGo4+36hmD3BY+5bTir/gUGXSby8rXvmhqWkNNLjlMJFjTUaWkDsNCgOcKCkVCqkmEmuGZxfMoPPqgAnlQv5OK7P75IT2iU91uPEU1gA4ON4T+n+Ic+o8JYhN0/DEf40S7mYIvK7s2BkPqoAW5HCF1pw+4vF0dhKgwxaOUDiAKR/9GO5dKVIz6oMvxpNpAMdUQ4p6avS3EP9JC60ge1UIfJljLHaozWVI3Ws39MKwAnBs+VXX8LB5oYHQVz+GTY+wQhDnFQ+oyZmKxMhTNVIkI4rBLiikVYOoDhgaOBnuldqi5SKRjgpWaLOL1UhA4go71hOkvAndPI94wRbMPlbLEfAogYrMU6lzV94xMn7VWyUtufEdINmQoOTs0JjQ+BiNRrmGMWXaiTBBfHshCVwsbZUBcfpn9Ry8vBkHBtwzD22E4yn34z2MdQlvVuNOPnGKG/baQORMtVqxxscfNKihjNhgWM7FM0NWElAi4RjKhzK+SWMJZDZfX/gpKQ9JsV5VGv21k5+k6TtCvltPv89jksw79w5ZHAd5/ayCiS2bi3+oBJETKhLNOPRikZfgJUEyAdG09EXA1M1iCXcDDfNv9+Dmi2LncABvs1XLlAFN4R5SNB3ToScPJzl2Z6jkVIDKQm3eX6hWu6JA9znmHGiBDPiO9g7Qizx6fYG16PsDyeebSLTpiYXIk7+WtdaZJmTCaWk6dZiAz8o1ZTsiQNSLF0JivZByCAWkUMrgYwD1YI3MF5I4QSKnb3khOzkPxM5oW1PepzIbJyAETABoaJDJQpF21K4MIv7TCpjJFBigBK8+fAFxT53Ng1REsa0D3l/YMSRXtuzJE54XyuAsoztgBN/5r0UKxng5F+qNKDOKNOaardGpb2NoJE44KPYCcfxzdL5GrrIaHoq2adXwEogCfN4HbSzfqc+xImtTDP7Dvx15xCOBgcQ/jnPI06wpcjwSLgd/AIp4BvFnG18huoSiJv8XqdZKgY0Chv2MIgwVKpVFfSI8ZPtnhO0ufXM8YQRJx+knMnfBScYRWW5e4WqeXyavLeiEZISM4bfaxYKy+1gMUiodnNkJYoq6r3khElxN6OdMCiKyz/Ai0+MkgFxIbSjHXESSWNCofsQJ/g0uSAN0cfLqS41lwvLy8udxcXRjB0W9FWfk1y3a05YnBNu29oPs3GiJUojT/hw0+t7Wmt/nu+Yk1ArhFpw6spiDoyh9VFdmvBxR3Ac7157udBsFwpW1h9OwvjAKIZXgw1iXM/fkZ08HOGk/MeMnHhcSRKU/mKMGbwILvW33507HtVsO7GTqKxQkH1yOLSgYR+q0XCv4DjLhXYbOCnEn/WCgIIZh7JhkkyzI06+nx3kxMjp25ntxBcetsAfjCy9ENTvRLX9DuKJvRsFLbSW3cVOa63uK1o5ALxAXXKvUyi0m8voPcCKJQVreTsvDGpEiYSI6HvVGClZORFYXlQeDWQuaCVJJos4EaPznUE7QYvWGFC+Hl7qoEhAuG92Hk8s8MisOvVfH9XRZbDnkwbrkhZEV7CUEGQqWKSgflQsFakuUSot5Web73DykwpevK8UPeEBmPlvbNsiThR1c7OGkjTDQIecfH/CoOtL1ETQeY7PcoFrqKhKqhoG2bzywaFdc+LZlNyA+tcmIwU/5l4LIkmz3eOk3aQJe4lWhGLbV8VPOfUsGWdeFE8rle9no3YJDqqfUhkacUKa0kOSh/ADAE605QTlPyHB3Klqu1rlPAy08O/8p2hpZtec2JwMEbwssfWGc1Fd0oY03O5zElqKrUtIHBDQJb4aJwwV1mmcad0wdDtMS41J59h7/VxMdnLhUOSdaBvQ8laekEDNcZAt7yKHj6uGDsKEFtgA4nt2nnciTux3ZsEHIOnbxtB+72EcQU76lBRo4SyJ/FCXcCOVv4VKsz0nlUOUwjUqzECKHVkKbwatZOOHPidaohk8nkfHwo8P3OMHNCN8Q5XjxEtqOsTVRyFvch2tJH+fc7Vr37E5OVQGwBqhoMc40kYaeqQsW/ehNhBjiTFbTNT9bHZCawUkFq2V/PEbG6fn5tafopB4s/w/yIlklHcETfCOXbt27eimvc7P8Q3XYcPvNmm+I8FVUGA8ehIPcdOOtx5DeS37nIAL7IwT+hU+V8B9m4SbzTZQMmgoSEqkvW7dY2bnBHIee3B2eJHkF2KGOBEKb6ospnt7NuG2gJOZ3iAU/A8Dq9ZHR9u/x1Wu6fGR3cZYD9ON/VHSWEqIg8JAPAktJRIH+LA4MMwJQ5H0YVoXEnEiPduyTA+2tscgMUPmyX9Yt3ZSFuVT3/U40WAYvlyP3kBxGrynrO9+OcjIuc+MEaSv07x4F/GkV6tgi2vudYiSZXKfPiehyTSpoDdKUNpLNZeZBxuovaZArp/cOLlp7QSiqJAP7Mw/f+4aDoA07D8J1KCCyiT0pPrBzRs3bjy7P+/ROWHD+s1nN549u2+dieMKNr3+9DotLbh17MYGp8G6wOvTd/FYdNpdL+m61yI6YgBnwl8dEhpfw3OA8ygYZl1ctcUx5rZcYLI7nKhh2xejxNpO4eL/PjEMHHjvz7sd1HaL1V4jeLd10bZ+o5zAvxd/Xn1xqQol3h6fVA392v6FafuU5W6v4YtuZzAJ93wHKTm88vz56iW+55y84dCaAylJaBMlzydXL5kDtOODgIYCtdsqxCIKxJLLR44AJZOTly+Nx7ORPfjQa6qpVtxMLl5+cfnI84nDExOHX1w66KvcX9ADodVu6/9IdlyOklDz4uXVI0cOIyYPHz5yKawSxwJMgp34HEhpR5wU8OdHpCQkBWiBQCs9k3Vi8muHlIzk2G6tXbBGQhnnxU+rKwOcTECgxWfzDvpq9wck3Pi+lkAKmkqhvbzc/vFvf3+xutrnBILKyqWqHJfcQ10yU55i3VqTDAUc52//+PtPQAnknJ6hTEBMGZfv+vBpjiypeIMyv0BWgpSA60xOTEaUgKmsXBqXL9HlJHPiKnJtui0MJyElkIN7nGDumYCKdky+vZ0WEglkhSnofUIrOTIxYTmJgH9jRcvG5PvqEEiK4vWp1o8/QSSZSAHGFJH1qwd+9eAGh1mm3n25OpnGCADqFM3f9u8DjUDDEgy3sz8/n8CImkqKSR18vZ1QQvPZn1cm0zlBUvbged5fBRh+kwSuLGdq8+VKKieTRIoej+KNnmKi1faSzb5MDbKTh4mUg77a/QE90gWEYJXvzb5cSSVlYnxIYTQfpye6lfLIfch/JmOAbUd+MUrr8QgqERRYyirxkRZof8EnD8emUPE8euaB3Odw3EpCU1kBUsaKE6BEK0jJqfl4cuK5JeWgL3RfwchSnm8RaVd+ia/gervBjWabL1cvXz6SDNixeiltHcFbCiHLvj97YmtUx0ROCQHliu+r1O9R4rT4Yly+dtjBwcHBwcHBwcHBwcHBwcHBwcHBwcHBwcHBwcHBwcHBwcHBwcHBwcHB4U3A/wPAiYGlcSpFzwAAAABJRU5ErkJggg==;" parent="_k-O106RIhIauwXnGpcd-32" vertex="1">
          <mxGeometry x="10.649999999999977" width="139.24" height="92.66" as="geometry" />
        </mxCell>
        <mxCell id="_k-O106RIhIauwXnGpcd-29" value="FLUTTER APP" style="text;html=1;align=center;verticalAlign=middle;resizable=0;points=[];autosize=1;strokeColor=none;fillColor=none;fontSize=21;fontStyle=1" parent="_k-O106RIhIauwXnGpcd-32" vertex="1">
          <mxGeometry y="82.65999999999997" width="162" height="37" as="geometry" />
        </mxCell>
        <mxCell id="_k-O106RIhIauwXnGpcd-34" value="" style="group;fillColor=none;" parent="_k-O106RIhIauwXnGpcd-40" vertex="1" connectable="0">
          <mxGeometry width="204" height="122" as="geometry" />
        </mxCell>
        <mxCell id="_k-O106RIhIauwXnGpcd-12" value="" style="shape=image;verticalLabelPosition=bottom;labelBackgroundColor=default;verticalAlign=top;aspect=fixed;imageAspect=0;image=data:image/png,iVBORw0KGgoAAAANSUhEUgAAASwAAACoCAMAAABt9SM9AAAAilBMVEVK1f8YvO7///8AuO0At+0Auu1N1/9B1P/j9v030v/5/v/3/f47w/DP7/uh3fau4/jv+v7b8/x70/Tq+P06zPm/6fnI7Pqm4PdayvFtz/OC1fS+6flBxPC15fgmwvKL2PVf2f+U2/WI4f9y3f+l6P+x6/9r2/+Q4/+e5v+M4v9TyPG95/g7wu/W7/tUIOFmAAAM/UlEQVR4nO2bC3uiuhaGCUnkNqhoRbGKtZ2embHt//97Jyv3ANrWW7eY73mmuwWF5M3KusEOAi8vLy8vLy8vLy8vLy8vLy8vLy8vLy8vLy8vLy8vLy8vLy8vLy8vLy8vLy8vLy8vLy8vLy8vLy8vLy8vLy8vL69LKkqip0GSRB0nksFT1HHifpX8mYZhmJYvDSpR8pyzE2H8nPzQyP57SspQKn6xqSTPY3Xi1dMSin6DWcUCTBkp44oGBT8yBqsLl34nCjEWI0rwrxFQSaVxJc/8r2GNCWWWl9Fg8MPD/C8IDKsgCCGK0RoA/QVaySv8OqeUshOEWV1FvW0xLGy3TRgSwEUWqXBQCTj26QojcXwYhmuMHrxtJVkY1gIWw4LAUZUJ/0n10R0zPoyop8VcVqqogHHNGKcMtiAxBxHz82Bl9U+P9cfFQBhYCBHu58MtsY5Rxk9syajLuFjW2lLSlePevhqwEIlhD9qsDCyKOggkf+MsbCgdx+Xfp/7xcrYhYzXns11ii1UttyH83nJcPBh069qpf8Rud9EFiphVIMtpTSAOsn8L69iKzRtrco3v/9vLiqkIrmhc0TMb+PjPBRcoYbtuR20ubA+yaJgagrRix4ylubRMsdSp7HoRNHoWt9xcbn1gF00MF5Z/xixnyCxb4nnW3N6qdjYPsA9p/HCxoTdnIuqzcHq5agMy+JEiQXJuUhSDgY2Uk8elzRNkAUimh2GFo/pKxhWpMNMZhs5zixfIOFldg9mPDUxustksJ5BuVeIgJWwU7w4sy80bWNlYKnODI7oSrShVN6ToYuYMl98tR2U7AQizuJxPVr9MMDQBUn3bwKoJlqJotzYX2bAPXwOXgdUVtM9yhyT6bB+BcoqpY1tIATCwflkfoKTS353hy+0LZyoWLLaa56YVJU+/G/45L9fr0Wi0XpeN9Oljg7CNSwHohsXc35s6ziOFWWmR3Ufwb8+o1Af2f6LrClFitiEs7HnNOUqeCzWh4m1bsXKZVTngpECYsJ2UrartTOMsF8R18zCafbDoQh3nW1jtiyh5ec3HWZqOi9dmG1ucD/69FuM0TbNx8finowhgK/yXuQz2gXj2Z6CSquTp5UXBWiwWO+B1PscVJf9k1zhn/90RSljMi52KMINymhKWpk6lmcUOLg5gL6zagYW4m4+iVzUjUPratJ3kfw2Djv81cszk2dkL+RM/HxVhQxVFZ2sqRU/inuWEQoHD/ApYwko2tsTPih+BDHVJ6FLMIkc2LQbgc1iFCg5B8qc5pdDJt6Ooo3QquoZtCZ4PRH/b38OwmmdhlfAiJduCH+JZO8VT3uHjHdOVcE+QdeWExUIeX0gtqsaFzaTeD2unjqssjuLH9pTCR0MrGrTjMYzStDogz2nTTILotX2YivGdgRVfiS0VEQ6z1VouIR3lkwSLLgAJN47FXNU67MO8fVPZtoUe9sDCc3Vc0SVdrKDVqFGMOz8QfqjI1smK835uHZxKj3Kym+c3jd91bcxAwdOdDZWFNAhSdjwSJxbaNlYwHydBJXpfOLDoLz1qeRu81RPJ8rUJG+Ewkb7fNo/M9m07Rcs+aJ9Pot/TVJ+E6FDqQZ66FWHrFFbeRPl9wBHTdz0CPvfUXiRuSYxWbmeoBlatAinL+YG/lDREvtkFvYqlrZisPtSBlXygpAwrHa5YWlcvtaGNMDcQqxmULxeLjb7AGj9ED7zQ4BLliB7yaW6eG5bjqPn2AlsSv4kRwp/cGjb2R2HOtXXAwIL8TOitMCawlqSxmqlaJUpUlp9jkYTIyeaIf4JNWV265Glt9D91zYwFb1iSib4AhBqkYCHHH7SaSt+E9Vv6cnO5UKYN2IRgnktC+pC5yWbuei1yuOugWGnDyoxFE3WzFaclmz1vOjuhBgZsJxMq1WLhjbwJ5KADJ4N3dAotgDV3vXEmO8nYTJ3Dg/k4yRfCM7cFcRDWtFLf1SZrfVcDnFNenfBkaWjteZXXclgmFzGXIIKv8E/JXlinlFvQJZs66SdfIUiysGnlQQjkqZabLIB/W30R1uNKWwmRQTMl1Eh9FzIxqE6Sp8pu2hIVUAUsVW1m1tDpKMtKMRxK9Tbs0PFuPgqdR11yJjmxRiT2Gp7qsaqPzhqgD2/DWHNV/FBthKS5wUaXqw87jFdbmCAdPgUshW7krB3WvvwgrOPdPE9458Y3LMSjQrAgrOrfRyxyCrBt8xCWzkLXZX3ms+R3TaXYKXFBPp8HjHaTrdsw4rB0hHD7kBaPQ7BOcPPcl8YruSaw94Yj6dJlMjnni8lIbWZ6LSlZTNWpTlgpl8tBJrTL8JDk9R+i6F/ZkZlyWPpGq6NgndCGEJFnxn0KPHAOa/ix5CG7Xm6X3B6A25gwm0g5ObLLNcYuWL90nlVXVl0rJmIy0g7JeEvxqPu8gLUnM/gyrOPdvCh4wmLC0sMNvEfDpyM9pSiDeBJeUQzv0DAPshFUqkbPtCuDZ65bd7PEpoVnHvslQjP9tafckbD2BrsvwkLHtyGiQAa+fMmmO8EUvPyj47o/wOlTwiiWKlte0+ay7il3sJ44T2m1ZX0MW9ruxE7VqYHUdO6kDidbFjrFzScLs/zD6p23CRamZMHgZmq6qqykvsat+++rDbUpDTkslV+O7NRBSeA1xUxWDic7RLALS91o58Ci5mWfz2Gd0G0ePKCNcS5pzOx8PJlUC1A1AVaZ1Z/Pl7RlVgdg6Q4N32M6//wg7tfNVHXtGC/4M6VmUqphLu3qi1bLnXqz4AuwTnDzg6AmaLLPU9iKJ24H/lNY8DKJBQth9aeziSh+X6lSUZlirG+kkz43z8qtHP8dBl/Sb8A6ods8YMU6M6jJMJ92tz/SuNxumiXPV2Bpf7wWsFRpMLLz73dm2OOd+wHr8Xh3Bm+1iKhY6C39OqyT2hDRDlJy6Gm8LyoYcF7meV7C9lxXuxpOkKZBfAnW1J6pNVVdLiIstmoq/lANF11cUZq6l1BX0LZHSuf8F2Gd0G2GbP5NdkJ5mlDAs1KYakFUJ7VoZO1fgqWOy9fgsHZ/Q+njiYqQ3Alpl7RVLohoj/8hxqcjTYF4HCLqwKNrWTXt9K6WjnXzycxqWHEvuya8D2OMCUa5/S4s078Qu8aqOtP1sqqWa73vRS6sUSxEs2plSgNRjFKkD4QzdoWhdrYTF1bMYtTenSDV+Qrj57Biu63A+w8bXu4bW4Ja5bGdNHwCS8dZuRSdjyukJSCneiw31WT7YX9CevA9ZYB8cxE7Veq+ClLpqK0IzVyr88lTb1jkraEj31buFt4XDXUS96a6Aq1ne0KyfsLtinysDlWmiO2QXGtzR1C6b8Ca1hG2FemFk5MXU5rZQas2jx3asLRnaTRzVRqqOzyUds71TZ1eNc+MkZq+alV20lJvdJrUrmM4bR3Vhmj0jSkFT1x0v4DbdU/VT/hovmijXIhpypJNa6bZRN+p2cYpqfZz2mOS1k7MFvq+2Hp1JxzvTXa0vp+fDhpvK4shZ04fhB6yamVa742lVAsd2wk3mjvPUeONHbZobT2QLgCCtKTM/szITgizrX0B86yy0d7dpxMtC6vFdCqwA5YFDwTjdLyuW4Oj7+tpFjuzgfRkNyzjcZZN8/WkblQFFK/mxTgbx7PtuziFN0U2fnOeRDF7m+dwhTifLxopAq23+TRLxx/z9nA69U1W8EzEfJmb+XQHi2ftD/tt5Q5RTEhXYsPiP2kXSbxlTAjBXckQvL3DTpmXwbquLT7Er9D9/a4z3fomLDt1EC44ZjYBm2Wk7ghuafZZcLlNfdeyXuFRHXyRkgoY5YwRRTG3MNGmh+dhmy8u1Y3pu7DgOS8kzaprLMCJpAX6zpRAvPssI75RfROWeIOgHK6nbiCWz8bj0RDOj/q5C78fDgPT0BrZb4ugmYnj/bSrI2BFgUhv0kbXmAVymUG3O+990fctK0gelsPNrh3+WZBfbIYT1NM9iI6CFQzqfZkJ/bQ3dNM6BhY8u7hLHQWLea6fHveP6EhYg6CnqdRBHQmLqf7poV9fx8Ma3B+t42HBU8SfHv2VdQKs+6N1CqwguLMU4jRYLIW4J+M6EdbgroLiibCCu0ohTocVfLHb3wOdAdb9BMUzwLqfoHgWWEHy09O4js4Da3AfXYjzwAruIyieDdbgDoLi2WDdQ1A8H6w7oHVGWCyF6Dmts8Lqe119Xlg9r6vPC6vnzeZzw+p1XX1+WD0OiueH1eO6+hKwehsULwJrEPz0tC6ji8AKelpXXwpWL4PixWD1MSheDFYfaV0OFguKfaN1SViDvqUQl4TVu7r6orD6VldfGFa/GoIXh9WnoHhxWH2qq68Aqz919TVg9SYoXgNW0Je6+kqw+lFXXwtWL4LitWD1IiheD1aQ3LxtXRHW7dfVV4QV3HxQvC6sG6+rrwvrxl95uzKs204hrg3rplOI68O64f+/+v+pLeakMH1JNwAAAABJRU5ErkJggg==;imageBorder=none;" parent="_k-O106RIhIauwXnGpcd-34" vertex="1">
          <mxGeometry x="33.64999999999998" width="135.7" height="76" as="geometry" />
        </mxCell>
        <mxCell id="_k-O106RIhIauwXnGpcd-26" value="WEB CLIENT SIDE" style="text;html=1;align=center;verticalAlign=middle;resizable=0;points=[];autosize=1;strokeColor=none;fillColor=none;fontSize=21;fontStyle=1" parent="_k-O106RIhIauwXnGpcd-34" vertex="1">
          <mxGeometry y="85" width="204" height="37" as="geometry" />
        </mxCell>
        <mxCell id="_k-O106RIhIauwXnGpcd-5" style="edgeStyle=orthogonalEdgeStyle;rounded=0;orthogonalLoop=1;jettySize=auto;html=1;strokeColor=#808080;startArrow=classic;startFill=1;endArrow=none;endFill=0;exitX=1.018;exitY=0.575;exitDx=0;exitDy=0;exitPerimeter=0;" parent="_k-O106RIhIauwXnGpcd-40" source="_k-O106RIhIauwXnGpcd-11" edge="1">
          <mxGeometry relative="1" as="geometry">
            <mxPoint x="90.99999999999997" y="278" as="sourcePoint" />
            <mxPoint x="471" y="278.4999999999999" as="targetPoint" />
          </mxGeometry>
        </mxCell>
        <mxCell id="_k-O106RIhIauwXnGpcd-36" style="edgeStyle=orthogonalEdgeStyle;rounded=0;orthogonalLoop=1;jettySize=auto;html=1;strokeColor=#808080;startArrow=none;startFill=0;endArrow=classic;endFill=1;exitX=0.995;exitY=0.669;exitDx=0;exitDy=0;exitPerimeter=0;" parent="_k-O106RIhIauwXnGpcd-40" source="_k-O106RIhIauwXnGpcd-11" edge="1">
          <mxGeometry relative="1" as="geometry">
            <mxPoint x="100.99999999999997" y="288" as="sourcePoint" />
            <mxPoint x="481" y="288.4999999999999" as="targetPoint" />
          </mxGeometry>
        </mxCell>
        <mxCell id="_k-O106RIhIauwXnGpcd-37" style="edgeStyle=orthogonalEdgeStyle;rounded=0;orthogonalLoop=1;jettySize=auto;html=1;strokeColor=#808080;startArrow=classic;startFill=1;endArrow=none;endFill=0;" parent="_k-O106RIhIauwXnGpcd-40" edge="1">
          <mxGeometry relative="1" as="geometry">
            <mxPoint x="167.99999999999997" y="488" as="sourcePoint" />
            <mxPoint x="478" y="319" as="targetPoint" />
            <Array as="points">
              <mxPoint x="230.99999999999997" y="488" />
              <mxPoint x="230.99999999999997" y="319" />
            </Array>
          </mxGeometry>
        </mxCell>
        <mxCell id="_k-O106RIhIauwXnGpcd-39" style="edgeStyle=orthogonalEdgeStyle;rounded=0;orthogonalLoop=1;jettySize=auto;html=1;strokeColor=#808080;startArrow=none;startFill=0;endArrow=classic;endFill=1;" parent="_k-O106RIhIauwXnGpcd-40" edge="1">
          <mxGeometry relative="1" as="geometry">
            <mxPoint x="167.99999999999997" y="498" as="sourcePoint" />
            <mxPoint x="479" y="331" as="targetPoint" />
            <Array as="points">
              <mxPoint x="245.99999999999997" y="498" />
              <mxPoint x="245.99999999999997" y="331" />
            </Array>
          </mxGeometry>
        </mxCell>
        <mxCell id="SZY12_XKgGBlkoAp8IEY-12" style="edgeStyle=orthogonalEdgeStyle;rounded=0;orthogonalLoop=1;jettySize=auto;html=1;strokeColor=#808080;startArrow=classic;startFill=1;endArrow=none;endFill=0;exitX=1;exitY=0.5;exitDx=0;exitDy=0;" parent="1" source="_k-O106RIhIauwXnGpcd-12" target="_k-O106RIhIauwXnGpcd-20" edge="1">
          <mxGeometry relative="1" as="geometry">
            <mxPoint x="277" y="199" as="sourcePoint" />
            <mxPoint x="597.75" y="386.9999999999999" as="targetPoint" />
            <Array as="points">
              <mxPoint x="371" y="199" />
              <mxPoint x="371" y="387" />
            </Array>
          </mxGeometry>
        </mxCell>
        <mxCell id="_k-O106RIhIauwXnGpcd-35" style="edgeStyle=orthogonalEdgeStyle;rounded=0;orthogonalLoop=1;jettySize=auto;html=1;strokeColor=#808080;startArrow=none;startFill=0;endArrow=classic;endFill=1;" parent="1" source="_k-O106RIhIauwXnGpcd-12" target="_k-O106RIhIauwXnGpcd-20" edge="1">
          <mxGeometry relative="1" as="geometry">
            <mxPoint x="291" y="209" as="sourcePoint" />
            <mxPoint x="607.75" y="396.9999999999999" as="targetPoint" />
            <Array as="points">
              <mxPoint x="359" y="209" />
              <mxPoint x="359" y="397" />
            </Array>
          </mxGeometry>
        </mxCell>
        <mxCell id="_k-O106RIhIauwXnGpcd-43" value="" style="shape=image;verticalLabelPosition=bottom;labelBackgroundColor=default;verticalAlign=top;aspect=fixed;imageAspect=0;image=https://teky.edu.vn/blog/wp-content/uploads/2021/08/quy-trinh-hoat-dong-chi-tiet.jpg;" parent="1" vertex="1">
          <mxGeometry x="-1204" y="98.23" width="1177.75" height="724.77" as="geometry" />
        </mxCell>
        <mxCell id="_k-O106RIhIauwXnGpcd-46" value="&lt;h2 style=&quot;font-size: 20px;&quot;&gt;ReactJS&lt;/h2&gt;" style="rounded=0;whiteSpace=wrap;html=1;fillColor=#fff2cc;strokeColor=#d6b656;" parent="1" vertex="1">
          <mxGeometry x="-950" y="348" width="140" height="235" as="geometry" />
        </mxCell>
      </root>
    </mxGraphModel>
  </diagram>
</mxfile>
